<?xml version="1.0"?>
<svg width="50" height="50" xmlns="http://www.w3.org/2000/svg" xmlns:svg="http://www.w3.org/2000/svg">
 <g class="layer">
  <title>Layer 1</title>
  <path d="m30.54,20.25c-1.44,0 -2.6,1.33 -2.6,2.96c0,1.63 1.16,2.96 2.6,2.96s2.6,-1.33 2.6,-2.96c0,-1.63 -1.16,-2.96 -2.6,-2.96zm-11.06,0c-1.44,0 -2.6,1.33 -2.6,2.96c0,1.63 1.16,2.96 2.6,2.96s2.6,-1.33 2.6,-2.96c0,-1.63 -1.16,-2.96 -2.6,-2.96zm11.06,0c-1.44,0 -2.6,1.33 -2.6,2.96c0,1.63 1.16,2.96 2.6,2.96s2.6,-1.33 2.6,-2.96c0,-1.63 -1.16,-2.96 -2.6,-2.96zm-11.06,0c-1.44,0 -2.6,1.33 -2.6,2.96c0,1.63 1.16,2.96 2.6,2.96s2.6,-1.33 2.6,-2.96c0,-1.63 -1.16,-2.96 -2.6,-2.96zm22.12,-20.12l-33.18,0c-4.59,0 -8.3,3.36 -8.3,7.53l0,30.1c0,4.16 3.71,7.53 8.3,7.53l30.42,0l-1.05,-3.54l8.32,7.6c1.41,1.28 3.79,0.38 3.79,-1.4l0,-40.29c0,-4.16 -3.71,-7.53 -8.3,-7.53zm-1.19,29.45c-3.79,3.14 -8.74,3.16 -8.74,3.16l-1.19,-1.45c1.22,-0.38 2.27,-0.88 3.35,-1.63l-0.25,-0.6c-1.99,0.83 -4.56,1.33 -8.57,1.33s-6.58,-0.5 -8.57,-1.33l-0.25,0.6c1.08,0.75 2.13,1.25 3.35,1.63l-1.19,1.45c0,0 -4.95,-0.03 -8.74,-3.16c-0.61,-0.5 -0.86,-1.28 -0.8,-2.01c0.69,-7.25 3.15,-11.64 4.04,-12.99c0.19,-0.33 0.47,-0.58 0.8,-0.8c1.05,-0.63 3.68,-2.03 6.91,-2.33l0.83,1.53c1.19,-0.2 2.49,-0.35 3.62,-0.35c1.11,0 2.38,0.15 3.62,0.35l0.83,-1.53c3.1,0.23 5.83,1.68 6.91,2.33c0.33,0.23 0.61,0.48 0.8,0.8c0.88,1.38 3.35,5.74 4.04,12.99c0.06,0.73 -0.19,1.51 -0.8,2.01zm-9.87,-9.33c-1.44,0 -2.6,1.33 -2.6,2.96c0,1.63 1.16,2.96 2.6,2.96s2.6,-1.33 2.6,-2.96c0,-1.63 -1.16,-2.96 -2.6,-2.96zm-11.06,0c-1.44,0 -2.6,1.33 -2.6,2.96c0,1.63 1.16,2.96 2.6,2.96s2.6,-1.33 2.6,-2.96c0,-1.63 -1.16,-2.96 -2.6,-2.96z" id="svg_1"/>
 </g>
</svg>