<?xml version="1.0"?>
<svg width="50" height="50" xmlns="http://www.w3.org/2000/svg" xmlns:svg="http://www.w3.org/2000/svg" version="1.1">
 <g class="layer">
  <title>Layer 1</title>
  <g id="svg_5">
   <path d="m8.64,0.12l32.13,0l0,49.76l-4.72,0l0,-22.79l-0.04,0c-0.52,-6.31 -5.39,-11.24 -11.3,-11.24c-5.92,0 -10.78,4.93 -11.3,11.24l-0.04,0l0,22.79l-4.72,0l0,-49.76zm0,0" fill="#000000" fill-rule="nonzero" id="svg_2"/>
   <path d="m0.09,7.19l1.91,7.05l1.62,0l0,28.58c-0.81,0 -1.47,0.72 -1.47,1.62l0,1.92l-0.29,0c-0.82,0 -1.47,0.71 -1.47,1.6l0,1.92l16.5,0l0,-1.92c0,-0.9 -0.66,-1.6 -1.47,-1.6l-0.29,0l0,-1.92c0,-0.9 -0.66,-1.62 -1.47,-1.62l-1.78,0l0,-35.63l-11.78,0zm0,0" fill="#000000" fill-rule="nonzero" id="svg_3"/>
   <path d="m36.35,42.82c-0.82,0 -1.47,0.72 -1.47,1.62l0,1.92l-0.29,0c-0.82,0 -1.49,0.71 -1.49,1.6l0,1.92l16.52,0l0,-1.92c0,-0.9 -0.66,-1.6 -1.47,-1.6l-0.29,0l0,-1.92c0,-0.9 -0.66,-1.62 -1.49,-1.62l0,-28.58l1.62,0l1.92,-7.05l-11.79,0l0,35.63l-1.76,0zm0,0" fill="#000000" fill-rule="nonzero" id="svg_4"/>
  </g>
 </g>

</svg>