<?xml version="1.0"?>
<svg width="50" height="50" xmlns="http://www.w3.org/2000/svg" xmlns:svg="http://www.w3.org/2000/svg">
 <g class="layer">
  <title>Layer 1</title>
  <path d="m14.81,0.1c-8.12,0 -14.71,6.6 -14.71,14.71l0,20.37c0,8.12 6.6,14.71 14.71,14.71l20.37,0c8.12,0 14.71,-6.6 14.71,-14.71l0,-20.37c0,-8.12 -6.6,-14.71 -14.71,-14.71l-20.37,0zm23.77,9.05c1.25,0 2.26,1.02 2.26,2.26c0,1.25 -1.02,2.26 -2.26,2.26c-1.25,0 -2.26,-1.02 -2.26,-2.26c0,-1.25 1.02,-2.26 2.26,-2.26zm-13.58,3.4c6.87,0 12.45,5.58 12.45,12.45c0,6.87 -5.58,12.45 -12.45,12.45c-6.87,0 -12.45,-5.58 -12.45,-12.45c0,-6.87 5.58,-12.45 12.45,-12.45zm0,2.26c-5.61,0 -10.19,4.57 -10.19,10.19c0,5.61 4.57,10.19 10.19,10.19c5.61,0 10.19,-4.57 10.19,-10.19c0,-5.61 -4.57,-10.19 -10.19,-10.19z" id="svg_1"/>
 </g>
</svg>