<?xml version="1.0" encoding="UTF-8"?>
<svg xmlns="http://www.w3.org/2000/svg" xmlns:xlink="http://www.w3.org/1999/xlink" width="50px" height="50px" viewBox="0 0 50 50" version="1.1">
<g id="surface1">
<path style=" stroke:none;fill-rule:nonzero;fill:rgb(0%,0%,0%);fill-opacity:1;" d="M 3.242188 0.492188 C 2.671875 0.753906 1.894531 1.296875 1.503906 1.710938 C -0.0507812 3.398438 0 2.464844 0 25.078125 C 0 44.65625 0.0273438 45.824219 0.492188 46.808594 C 0.753906 47.378906 1.296875 48.160156 1.710938 48.546875 C 3.398438 50.105469 2.464844 50.050781 25.027344 50.050781 C 47.589844 50.050781 46.65625 50.105469 48.339844 48.546875 C 48.753906 48.160156 49.300781 47.378906 49.558594 46.808594 C 50.027344 45.824219 50.050781 44.65625 50.050781 25.078125 C 50.050781 2.464844 50.105469 3.398438 48.546875 1.710938 C 48.160156 1.296875 47.378906 0.753906 46.808594 0.492188 C 45.824219 0.0273438 44.683594 0 25.027344 0 C 5.367188 0 4.226562 0.0273438 3.242188 0.492188 Z M 22.535156 8.273438 C 23.054688 8.636719 23.675781 9.492188 24.09375 10.347656 C 24.714844 11.722656 24.765625 12.085938 24.894531 16.726562 C 25.027344 21.445312 25.050781 21.65625 25.542969 21.65625 C 26.039062 21.65625 26.0625 21.445312 26.191406 16.597656 C 26.347656 10.867188 26.609375 9.90625 28.371094 8.351562 C 29.203125 7.625 29.488281 7.519531 30.835938 7.519531 C 31.976562 7.519531 32.546875 7.675781 33.222656 8.117188 C 34.308594 8.84375 35.425781 10.996094 35.917969 13.355469 C 36.878906 17.867188 37.007812 30.03125 36.175781 35.789062 C 35.347656 41.46875 33.222656 43.957031 29.980469 43.050781 C 28.554688 42.660156 27.59375 41.777344 26.867188 40.195312 C 26.425781 39.1875 26.324219 38.355469 26.191406 34.230469 C 26.0625 29.640625 26.039062 29.433594 25.542969 29.433594 C 25.050781 29.433594 25.027344 29.640625 24.894531 34.230469 C 24.765625 38.328125 24.664062 39.210938 24.222656 40.195312 C 23.574219 41.597656 22.378906 42.660156 21.058594 43.050781 C 19.710938 43.414062 19.242188 43.386719 18.050781 42.789062 C 15.378906 41.492188 14.367188 37.757812 14.082031 28.269531 C 13.925781 22.875 14.261719 16.675781 14.910156 13.640625 C 15.457031 11.074219 16.625 8.6875 17.6875 8.039062 C 18.878906 7.289062 21.316406 7.417969 22.535156 8.273438 Z M 22.535156 8.273438 "/>
</g>
</svg>
