<?xml version="1.0"?>
<svg width="50" height="50" xmlns="http://www.w3.org/2000/svg" xmlns:svg="http://www.w3.org/2000/svg">
 <g class="layer">
  <title>Layer 1</title>
  <path d="m8.43,0.14c-4.58,0 -8.29,3.7 -8.29,8.29l0,33.14c0,4.58 3.7,8.29 8.29,8.29l33.14,0c4.58,0 8.29,-3.7 8.29,-8.29l0,-33.14c0,-4.58 -3.7,-8.29 -8.29,-8.29l-33.14,0zm2.47,10.65l9.39,0l6.68,9.48l8.1,-9.48l2.96,0l-9.72,11.37l11.98,17.03l-9.39,0l-7.74,-11l-9.4,11l-2.96,0l11.02,-12.9l-10.91,-15.51zm4.52,2.37l16.7,23.67l3.63,0l-16.7,-23.67l-3.63,0z" id="svg_1"/>
 </g>
</svg>