<?xml version="1.0"?>
<svg width="50" height="50" xmlns="http://www.w3.org/2000/svg" xmlns:svg="http://www.w3.org/2000/svg">
 <g class="layer">
  <title>Layer 1</title>
  <path d="m6.03,0.1c-3.27,0 -5.93,2.66 -5.93,5.93l0,37.94c0,3.27 2.66,5.93 5.93,5.93l37.94,0c3.27,0 5.93,-2.66 5.93,-5.93l0,-37.94c0,-3.27 -2.66,-5.93 -5.93,-5.93l-37.94,0zm7.11,4.74l2.85,0l1.9,4.74l1.9,-4.74l2.85,0l-3.56,8.3l0,4.74l-2.37,0l0,-4.75c-0.71,-1.91 -3.07,-7.09 -3.56,-8.29zm11.86,3.56c1.06,0 2.1,0.32 2.76,1.13c0.51,0.58 0.79,1.52 0.79,2.75l0,1.73c0,1.23 -0.24,2.09 -0.74,2.67c-0.66,0.79 -1.77,1.21 -2.82,1.21c-1.06,0 -2.13,-0.42 -2.8,-1.21c-0.51,-0.58 -0.76,-1.43 -0.76,-2.67l0,-1.72c0,-1.23 0.27,-2.18 0.79,-2.76c0.66,-0.81 1.57,-1.13 2.76,-1.13zm4.74,0l2.37,0l0,7.11c0.06,0.32 0.4,0.46 0.72,0.46c0.49,0 1.1,-0.57 1.65,-1.2l0,-6.38l2.37,0l0,9.49l-2.37,0l0,-1.64c-0.96,0.94 -1.78,1.64 -2.86,1.6c-0.78,-0.02 -1.33,-0.31 -1.6,-0.88c-0.17,-0.33 -0.28,-0.87 -0.28,-1.65l0,-6.92zm-4.74,1.92c-0.17,0 -0.32,0.04 -0.46,0.09c-0.14,0.06 -0.27,0.15 -0.38,0.26c-0.11,0.11 -0.19,0.24 -0.25,0.38c-0.06,0.15 -0.09,0.31 -0.09,0.47l0,3.33c0,0.33 0.13,0.63 0.34,0.85c0.11,0.11 0.24,0.2 0.38,0.26c0.14,0.06 0.3,0.09 0.46,0.09c0.17,0 0.32,-0.04 0.46,-0.09c0.43,-0.19 0.72,-0.62 0.72,-1.11l0,-3.33c0,-0.66 -0.53,-1.21 -1.19,-1.21zm-0.01,11.12l0.02,0c0,0 7.96,0 13.27,0.38c0.75,0.08 2.36,0.09 3.81,1.58c1.14,1.11 1.51,3.68 1.51,3.68c0,0 0.38,1.81 0.38,4.81l0,2.81c0,3 -0.38,4.81 -0.38,4.81c0,0 -0.37,2.56 -1.51,3.68c-1.45,1.48 -3.06,1.49 -3.81,1.58c-5.31,0.38 -13.28,0.39 -13.28,0.39c0,0 -9.87,-0.09 -12.9,-0.38c-0.84,-0.15 -2.74,-0.11 -4.19,-1.58c-1.14,-1.13 -1.51,-3.69 -1.51,-3.69c0,0 -0.38,-1.81 -0.38,-4.81l0,-2.81c0,-3 0.38,-4.81 0.38,-4.81c0,0 0.37,-2.56 1.51,-3.68c1.45,-1.48 3.06,-1.49 3.81,-1.58c5.31,-0.38 13.27,-0.38 13.27,-0.38zm-15.4,4.74l0,2.35l2.37,0l0,11.88l2.37,0l0,-11.88l2.37,0l0,-2.35l-7.11,0zm15.41,0l0,14.23l2.37,0l0,-1.48c0.75,0.92 1.72,1.48 2.53,1.48c0.89,0 1.66,-0.47 1.97,-1.4c0.13,-0.5 0.24,-0.96 0.25,-2l0,-3.26c0,-1.17 -0.15,-2.06 -0.31,-2.56c-0.3,-0.92 -1.02,-1.45 -1.91,-1.45c-1.17,-0.01 -1.64,0.59 -2.53,1.64l0,-5.19l-2.37,0zm-8.3,3.56l0,7.93c0,0.85 0.12,1.42 0.27,1.8c0.26,0.6 0.79,0.94 1.55,0.94c0.87,0 1.98,-0.6 2.92,-1.62l0,1.62l2.37,0l0,-10.67l-2.37,0l0,7.43c-0.52,0.69 -1.28,1.21 -1.75,1.21c-0.31,0 -0.56,-0.13 -0.62,-0.47l0,-8.17l-2.37,0zm20.19,0c-1.2,0 -2.13,0.38 -2.81,1.09c-0.5,0.52 -0.78,1.38 -0.78,2.49l0,3.63c0,1.1 0.32,1.89 0.82,2.4c0.68,0.71 1.6,1.07 2.83,1.07c1.22,0 2.18,-0.37 2.82,-1.13c0.28,-0.33 0.47,-0.71 0.56,-1.13c0.01,-0.19 0.08,-0.7 0.08,-1.3l-2.37,0l0,0.95c0,0.55 -0.53,1 -1.19,1c-0.65,0 -1.19,-0.45 -1.19,-1l0,-2.13l4.74,0l0,-0.69l0,-1.71c0,-1.11 -0.27,-1.92 -0.76,-2.44c-0.66,-0.71 -1.59,-1.09 -2.76,-1.09zm-0.04,1.72c0.65,0 1.19,0.44 1.19,1l0,1.58l-2.37,0l0,-1.58c0,-0.56 0.53,-1 1.19,-1zm-8.04,0.36c0.65,0 0.92,0.39 0.92,1.64l0,3.26c0,1.23 -0.27,1.66 -0.92,1.66c-0.37,0 -1.07,-0.25 -1.45,-0.63l0,-5.18c0.38,-0.38 1.08,-0.75 1.45,-0.75z" id="svg_1"/>
 </g>
</svg>